<svg width="127" height="29" viewBox="0 0 127 29" fill="none" xmlns="http://www.w3.org/2000/svg">
<path d="M2.08625 22V4.84H5.92625V11.872H18.0223V4.84H21.8623V22H18.0223V14.992H5.92625V22H2.08625ZM31.1951 22.12C29.0511 22.12 27.3791 21.592 26.1791 20.536C24.9791 19.464 24.3791 17.896 24.3791 15.832C24.3791 13.752 24.9791 12.184 26.1791 11.128C27.3791 10.056 29.0511 9.52 31.1951 9.52H37.1951C38.6031 9.52 39.6751 9.856 40.4111 10.528C41.1631 11.184 41.5391 12.128 41.5391 13.36C41.5391 15.872 40.0911 17.128 37.1951 17.128H28.1231C28.4591 18.616 29.4831 19.36 31.1951 19.36H40.9151V22.12H31.1951ZM31.1951 12.28C29.5471 12.28 28.5311 12.976 28.1471 14.368H37.0271C37.3471 14.368 37.5951 14.272 37.7711 14.08C37.9631 13.888 38.0591 13.624 38.0591 13.288C38.0591 12.616 37.7151 12.28 37.0271 12.28H31.1951ZM43.7028 22V4.84H47.1828V22H43.7028ZM49.82 27.4V9.64H58.7C60.844 9.64 62.516 10.168 63.716 11.224C64.916 12.28 65.516 13.808 65.516 15.808C65.516 17.824 64.916 19.36 63.716 20.416C62.516 21.472 60.844 22 58.7 22H53.3V27.4H49.82ZM58.7 12.4H53.3V19.24H58.7C59.74 19.24 60.532 18.96 61.076 18.4C61.636 17.824 61.916 16.96 61.916 15.808C61.916 14.672 61.636 13.824 61.076 13.264C60.532 12.688 59.74 12.4 58.7 12.4ZM67.4874 22.12V19L81.2874 19.024C81.9914 19.024 82.5274 18.864 82.8954 18.544C83.2794 18.208 83.4714 17.672 83.4714 16.936C83.4714 16.2 83.2794 15.672 82.8954 15.352C82.5274 15.016 81.9914 14.848 81.2874 14.848H72.6954C70.9194 14.848 69.5354 14.424 68.5434 13.576C67.5674 12.712 67.0794 11.448 67.0794 9.784C67.0794 8.12 67.5674 6.864 68.5434 6.016C69.5354 5.152 70.9194 4.72 72.6954 4.72H86.1834V7.84L73.1034 7.816C72.4154 7.816 71.8794 7.976 71.4954 8.296C71.1114 8.6 70.9194 9.096 70.9194 9.784C70.9194 10.472 71.1114 10.976 71.4954 11.296C71.8794 11.6 72.4154 11.752 73.1034 11.752H81.6954C83.4714 11.752 84.8474 12.192 85.8234 13.072C86.8154 13.936 87.3114 15.224 87.3114 16.936C87.3114 18.632 86.8154 19.92 85.8234 20.8C84.8474 21.68 83.4714 22.12 81.6954 22.12H67.4874ZM95.6951 22.12C93.5511 22.12 91.8791 21.592 90.6791 20.536C89.4791 19.464 88.8791 17.896 88.8791 15.832C88.8791 13.752 89.4791 12.184 90.6791 11.128C91.8791 10.056 93.5511 9.52 95.6951 9.52H101.695C103.103 9.52 104.175 9.856 104.911 10.528C105.663 11.184 106.039 12.128 106.039 13.36C106.039 15.872 104.591 17.128 101.695 17.128H92.6231C92.9591 18.616 93.9831 19.36 95.6951 19.36H105.415V22.12H95.6951ZM95.6951 12.28C94.0471 12.28 93.0311 12.976 92.6471 14.368H101.527C101.847 14.368 102.095 14.272 102.271 14.08C102.463 13.888 102.559 13.624 102.559 13.288C102.559 12.616 102.215 12.28 101.527 12.28H95.6951ZM108.203 22V4.84H111.683V22H108.203ZM117.056 22V12.4H113.48V9.64H117.056V8.68C117.056 7.544 117.384 6.632 118.04 5.944C118.696 5.24 119.72 4.888 121.112 4.888H126.344V7.648H121.976C121.016 7.648 120.536 8.136 120.536 9.112V9.64H125.672V12.4H120.536V22H117.056Z" fill="#0088FF"/>
<path d="M60.0284 2.55467L61.0271 3.76712C61.0271 3.76712 60.6576 5.15834 59.6289 6.15007C57.6534 8.05424 54.7683 6.80983 53.6365 5.95033C52.5665 5.07744 53.0938 4.88529 53.4368 4.9516L54.4355 5.15135C52.6248 2.2948 53.1222 1.98979 53.6365 2.15518L55.4342 2.95416C56.5866 3.58875 57.1321 3.25377 57.4317 2.95416L58.0309 2.35492C58.9298 1.55594 59.8226 2.32296 60.0284 2.55467Z" fill="#FF8800" stroke="#FF8800" stroke-linecap="round" stroke-linejoin="round"/>
<path d="M59.1302 3.7531C59.1302 3.69759 59.0852 3.65259 59.0297 3.65259C58.9742 3.65259 58.9292 3.69759 58.9292 3.7531C58.9292 3.80861 58.9742 3.85361 59.0297 3.85361C59.0852 3.85361 59.1302 3.80861 59.1302 3.7531Z" fill="white" stroke="#FF8800"/>
</svg>
