<svg width="32" height="32" viewBox="0 0 32 32" fill="none" xmlns="http://www.w3.org/2000/svg">
<g clip-path="url(#clip0_56_129)">
<path d="M13.6999 11.6416C13.693 11.9478 13.7473 12.2524 13.8597 12.5374C13.9721 12.8224 14.1403 13.0821 14.3545 13.3012C14.5686 13.5203 14.8244 13.6944 15.1067 13.8133C15.3891 13.9322 15.6924 13.9935 15.9987 13.9936C16.3051 13.9936 16.6084 13.9325 16.8908 13.8137C17.1732 13.695 17.4291 13.521 17.6433 13.302C17.8576 13.083 18.0259 12.8235 18.1385 12.5385C18.251 12.2536 18.3055 11.949 18.2988 11.6427C18.2855 11.0418 18.0374 10.4699 17.6078 10.0495C17.1781 9.62917 16.601 9.39371 15.9999 9.39355C15.3988 9.3934 14.8215 9.62858 14.3917 10.0487C13.9618 10.4689 13.7135 11.0406 13.6999 11.6416Z" fill="#0088FF" stroke="#0088FF"/>
<path d="M16.7 23.7302H17.2V24.2302V30.7302H18.3V18.6389L18.2987 18.5665L18.2986 18.5665V18.5574C18.2986 17.7003 18.6176 16.9192 19.1383 16.3263L19.1467 16.3166L19.1557 16.3075L23.6959 11.6427L23.7415 11.5958L23.7976 11.5622C23.8659 11.5214 23.9239 11.4656 23.9673 11.3989C24.0107 11.3323 24.0383 11.2566 24.0479 11.1777C24.0576 11.0988 24.0491 11.0187 24.0232 10.9436C23.9972 10.8684 23.9544 10.8002 23.898 10.7441C23.8416 10.6881 23.7732 10.6456 23.6979 10.62C23.6227 10.5944 23.5425 10.5863 23.4637 10.5964C23.3848 10.6064 23.3093 10.6344 23.2429 10.6781C23.1764 10.7218 23.1209 10.7801 23.0804 10.8486L23.0502 10.8998L23.0088 10.9425L19.7608 14.2885L19.7608 14.2885L19.7588 14.2904C19.3719 14.6846 18.8319 14.9302 18.2344 14.9302H13.767C13.1704 14.9302 12.6293 14.6854 12.2421 14.2914C12.2418 14.2911 12.2415 14.2908 12.2411 14.2904L8.93607 10.956L8.89323 10.9128L8.86201 10.8605C8.82122 10.7923 8.76537 10.7343 8.69874 10.6909C8.6321 10.6475 8.55644 10.6199 8.47752 10.6102C8.3986 10.6006 8.31851 10.609 8.24337 10.635C8.16822 10.661 8.10001 10.7038 8.04392 10.7602C7.98784 10.8165 7.94538 10.885 7.91977 10.9602C7.89416 11.0355 7.88609 11.1156 7.89616 11.1945C7.90624 11.2734 7.9342 11.3489 7.97791 11.4153C8.02162 11.4817 8.07992 11.5373 8.14837 11.5777L8.20414 11.6107L8.24967 11.6568L12.8389 16.302L12.8491 16.3124L12.8588 16.3233C13.3822 16.919 13.7014 17.7015 13.7014 18.5574H13.7015L13.7013 18.567L13.7 18.635V30.7302H14.8V24.2302V23.7302H15.3H16.7Z" fill="#0088FF" stroke="#0088FF"/>
</g>
<path d="M19.1611 1.39169L20.2264 2.68497C20.2264 2.68497 19.8322 4.16895 18.735 5.22679C16.6278 7.25791 13.5503 5.93054 12.3431 5.01373C11.2017 4.08266 11.7642 3.87769 12.1301 3.94843L13.1954 4.16149C11.264 1.1145 11.7945 0.789155 12.3431 0.96557L14.2607 1.81781C15.4898 2.49471 16.0717 2.13741 16.3913 1.81781L17.0305 1.17863C17.9892 0.326386 18.9416 1.14454 19.1611 1.39169Z" fill="#FF8800" stroke="#FF8800" stroke-linecap="round" stroke-linejoin="round"/>
<path d="M18.1697 2.67002C18.1697 2.62922 18.1366 2.59614 18.0958 2.59614C18.055 2.59614 18.0219 2.62922 18.0219 2.67002C18.0219 2.71082 18.055 2.7439 18.0958 2.7439C18.1366 2.7439 18.1697 2.71082 18.1697 2.67002Z" fill="white" stroke="#FF8800"/>
<defs>
<clipPath id="clip0_56_129">
<rect width="22.4" height="22.4" fill="white" transform="matrix(-1 0 0 1 27.2 8.8302)"/>
</clipPath>
</defs>
</svg>
